<?xml version="1.0" encoding="UTF-8"?>
<svg xmlns="http://www.w3.org/2000/svg" xmlns:xlink="http://www.w3.org/1999/xlink" width="2400" height="2000" viewBox="0 0 2400 2000">

<path fill-rule="evenodd" fill="rgb(2.397156%, 0%, 0%)" fill-opacity="1" d="M 503.660156 543.210938 C 503.660156 543.210938 447.699219 560.511719 411.070312 646.988281 C 411.070312 646.988281 312.378906 780 286.941406 822.730469 C 261.503906 865.46875 297.113281 860.378906 313.394531 867.5 C 329.675781 874.621094 349.007812 892.941406 372.40625 886.828125 C 395.808594 880.730469 400.898438 867.5 426.335938 835.960938 C 426.335938 835.960938 429.386719 863.429688 416.160156 882.761719 C 416.160156 882.761719 426.335938 882.761719 450.753906 880.730469 C 475.171875 878.691406 450.753906 912.269531 495.523438 916.339844 C 540.289062 920.410156 660.78125 902.210938 692.578125 1083.046875 C 724.375 1263.886719 841.621094 1293.695312 911.175781 1303.632812 C 911.175781 1303.632812 933.035156 1281.773438 891.304688 1275.8125 C 849.570312 1269.851562 827.710938 1258.519531 803.863281 1182.707031 C 803.863281 1182.707031 817.773438 1232.222656 883.355469 1243.085938 C 883.355469 1243.085938 889.316406 1185.894531 835.660156 1129.503906 C 835.660156 1129.503906 937.773438 1188.878906 939.808594 1314.027344 C 941.84375 1439.175781 937.265625 1394.152344 949.984375 1457.742188 C 962.703125 1521.335938 928.363281 1584.929688 928.363281 1584.929688 C 928.363281 1584.929688 882.578125 1649.75 901.65625 1656.128906 C 920.734375 1662.511719 995.769531 1681.589844 995.769531 1615.453125 C 995.769531 1615.453125 1037.738281 1633.257812 1032.660156 1582.386719 C 1027.570312 1531.511719 1031.378906 1469.191406 1042.828125 1420.859375 C 1054.28125 1372.53125 1053 1234.585938 1074.628906 1198.632812 C 1074.628906 1198.632812 1073.351562 1234.464844 1080.988281 1243.085938 C 1080.988281 1243.085938 1115.320312 1192.5625 1144.578125 1182.707031 C 1144.578125 1182.707031 1120.410156 1200.832031 1106.421875 1231.355469 C 1106.421875 1231.355469 1150.941406 1216.058594 1200.539062 1212.894531 C 1200.539062 1212.894531 1097.519531 1228.8125 1072.078125 1283.503906 C 1072.078125 1283.503906 1159.839844 1275.871094 1237.421875 1231.355469 C 1315 1186.84375 1360.789062 1191.929688 1381.140625 1230.085938 C 1401.488281 1268.238281 1407.851562 1278.414062 1407.851562 1278.414062 L 1428.199219 1266.96875 C 1428.199219 1266.96875 1418.019531 1241.492188 1470.171875 1212.894531 C 1522.308594 1184.300781 1617.699219 1113.628906 1666.03125 1117.804688 C 1714.359375 1121.980469 1686.378906 1204.609375 1733.441406 1212.894531 C 1780.5 1221.183594 1767.78125 1212.894531 1767.78125 1212.894531 C 1767.78125 1212.894531 1704.191406 1034.222656 1657.128906 1074.921875 C 1610.070312 1115.617188 1453.628906 1177.960938 1388.769531 1182.707031 C 1388.769531 1182.707031 1608.800781 1018.960938 1671.121094 787.480469 C 1671.121094 787.480469 1635.511719 1005.132812 1580.820312 1060.375 C 1526.128906 1115.617188 1662.21875 1001.316406 1706.730469 1060.375 C 1751.238281 1119.433594 1775.410156 1210.300781 1807.210938 1243.085938 C 1839 1275.871094 1869.53125 1328.015625 1878.429688 1366.171875 C 1887.328125 1404.328125 1900.050781 1542.957031 1837.730469 1610.363281 C 1837.730469 1610.363281 1826.28125 1639.617188 1938.210938 1626.898438 C 1938.210938 1626.898438 1961.101562 1629.441406 1956.011719 1578.570312 C 1956.011719 1578.570312 1997.980469 1586.199219 1966.191406 1514.976562 C 1934.390625 1443.753906 1948.378906 1336.921875 1954.738281 1297.492188 C 1961.101562 1258.066406 1879.699219 1179.210938 1879.699219 1097.8125 C 1879.699219 1016.414062 1935.660156 751.230469 1833.910156 714.988281 C 1732.171875 678.75 1949.648438 680.019531 1978.898438 832.640625 C 2008.160156 985.261719 2022.148438 1102.269531 2041.21875 1089.554688 C 2060.300781 1076.835938 2065.390625 817.378906 1954.738281 737.25 C 1844.089844 657.128906 1827.558594 645.679688 1671.121094 666.03125 C 1514.679688 686.378906 1396.398438 695.28125 1297.199219 671.121094 C 1197.988281 646.949219 1080.988281 596.078125 960.160156 580.820312 C 960.160156 580.820312 817.714844 496.871094 646.015625 522.308594 C 646.015625 522.308594 639.148438 532.230469 643.21875 570.898438 C 647.285156 609.558594 583.1875 662.46875 581.152344 606.511719 C 579.117188 550.550781 503.660156 543.210938 503.660156 543.210938 "/>
<path fill-rule="evenodd" fill="rgb(2.397156%, 0%, 0%)" fill-opacity="1" d="M 412.128906 618.878906 L 396.5 641.671875 C 396.5 641.671875 341.800781 642.96875 307.289062 601.300781 C 307.289062 601.300781 367.847656 624.738281 412.128906 618.878906 "/>
<path fill-rule="evenodd" fill="rgb(2.397156%, 0%, 0%)" fill-opacity="1" d="M 389.480469 492.011719 C 389.480469 492.011719 434.925781 527.960938 504.113281 529.308594 C 573.304688 530.671875 572.625 556.449219 588.226562 571.371094 C 603.828125 586.289062 640.457031 549.660156 616.035156 523.210938 C 591.617188 496.75 567.199219 490.648438 517.679688 499.46875 C 468.164062 508.289062 417.289062 502.179688 389.480469 492.011719 "/>
<path fill-rule="evenodd" fill="rgb(2.397156%, 0%, 0%)" fill-opacity="1" d="M 873.855469 1315.136719 C 873.855469 1315.136719 908.449219 1309.03125 917.945312 1342.269531 C 927.441406 1375.503906 920.65625 1385.257812 934.226562 1440.878906 C 947.789062 1496.5 945.757812 1549.40625 911.160156 1586.035156 C 876.566406 1622.664062 886.742188 1640.980469 886.742188 1640.980469 C 886.742188 1640.980469 822.980469 1647.765625 828.40625 1633.519531 C 833.835938 1619.273438 890.53125 1565.609375 893.527344 1510.742188 C 897.597656 1436.128906 855.539062 1378.644531 873.855469 1315.136719 "/>
<path fill-rule="evenodd" fill="rgb(2.397156%, 0%, 0%)" fill-opacity="1" d="M 1631.929688 1138.09375 C 1631.929688 1138.09375 1623.449219 1202.742188 1699.761719 1265.277344 C 1776.070312 1327.808594 1763.351562 1389.28125 1763.351562 1441.214844 C 1763.351562 1493.148438 1727.320312 1574.757812 1707.179688 1595.953125 C 1707.179688 1595.953125 1701.878906 1602.3125 1725.199219 1608.671875 C 1748.519531 1615.03125 1807.871094 1615.03125 1811.050781 1595.953125 C 1814.230469 1576.878906 1806.808594 1544.019531 1825.890625 1545.082031 C 1844.960938 1546.140625 1828.011719 1531.304688 1831.191406 1450.753906 C 1834.359375 1370.203125 1838.601562 1285.414062 1802.570312 1264.21875 C 1766.53125 1243.019531 1705.058594 1240.898438 1694.460938 1187.90625 C 1683.859375 1134.914062 1666.910156 1119.015625 1631.929688 1138.09375 "/>
</svg>
