<?xml version="1.0" encoding="UTF-8"?>
<svg xmlns="http://www.w3.org/2000/svg" xmlns:xlink="http://www.w3.org/1999/xlink" width="2600" height="1738" viewBox="0 0 2600 1738">
<path fill-rule="nonzero" fill="rgb(0%, 0%, 0%)" fill-opacity="1" d="M 368.34375 0 C 368.128906 0 367.914062 0.0195312 367.699219 0.0507812 C 366.171875 0.308594 364.929688 1.429688 364.53125 2.929688 C 358.964844 23.730469 352.894531 45.980469 359.40625 66.949219 C 364.589844 83.640625 377.667969 99.179688 391.746094 114 L 391.746094 114.011719 C 379.382812 110.511719 367.214844 107.699219 356.894531 107.699219 C 356.160156 107.699219 355.351562 107.71875 354.628906 107.75 C 340.433594 108.339844 330.273438 114.769531 321.140625 120.980469 C 309.929688 115.460938 299.105469 109.679688 287.324219 95.761719 C 274.574219 80.699219 260.695312 56.109375 246.5625 31.019531 C 245.859375 29.769531 244.535156 29.019531 243.125 29.019531 C 242.917969 29.019531 242.707031 29.03125 242.496094 29.070312 C 240.867188 29.328125 239.570312 30.578125 239.253906 32.210938 L 239.105469 32.96875 C 233.78125 60.261719 228.167969 89.039062 236.199219 111.980469 C 243.847656 133.828125 263.648438 149.859375 283.027344 164.78125 L 282.917969 164.789062 C 243.386719 199.410156 203.464844 234.839844 190.1875 266.300781 C 185.085938 278.390625 183.925781 289.820312 182.785156 300.859375 C 181.59375 312.429688 180.410156 323.660156 175.195312 336.019531 C 171.734375 344.210938 166.445312 353.019531 158.054688 362.660156 C 141.765625 381.390625 114.003906 403.160156 86.152344 424.96875 C 59.292969 446.011719 32.316406 467.121094 16.71875 485.058594 C 15.359375 486.621094 14.125 488.109375 12.929688 489.640625 C -13.410156 523.359375 5.613281 545.160156 24.652344 567.238281 C 27.664062 570.730469 30.753906 574.320312 33.695312 577.960938 C 40.390625 586.238281 46.679688 595.210938 52.820312 603.980469 C 58.53125 612.140625 64.046875 620.019531 69.648438 626.949219 C 77.449219 636.589844 85.714844 644.761719 94.914062 648.019531 C 98.332031 649.238281 101.765625 649.738281 105.3125 649.738281 C 113.058594 649.738281 121.550781 647.28125 131.34375 644.488281 C 147 640.019531 167.515625 634.171875 197.984375 633.269531 C 200.800781 633.191406 203.898438 633.148438 206.886719 633.148438 C 244.285156 633.148438 293.40625 639.210938 334.101562 644.25 C 357.710938 647.171875 378.574219 649.75 392.425781 650.53125 C 395.996094 650.730469 399.070312 650.820312 401.8125 650.820312 C 409.964844 650.820312 414.675781 650.078125 417.769531 649.589844 C 419.355469 649.339844 420.144531 649.230469 420.734375 649.230469 L 420.804688 649.230469 C 421.703125 649.230469 422.175781 649.308594 429.28125 656 C 431.332031 657.941406 433.703125 660.179688 436.851562 663.070312 C 438.761719 664.820312 441.335938 667.160156 443.738281 669.339844 C 446.75 672.070312 450.355469 675.339844 453.96875 678.660156 C 485.917969 708 537.089844 757.925781 560.519531 811.992188 C 574.234375 843.652344 578.511719 876.890625 582.867188 910.941406 C 587.246094 945.167969 591.703125 980.210938 606.355469 1014.03125 C 607.140625 1015.84375 607.902344 1017.53125 608.75 1019.339844 L 608.746094 1019.34375 C 640.816406 1087.941406 717.019531 1150.542969 756.011719 1175.457031 C 775.550781 1187.941406 786.082031 1191.195312 792.265625 1193.085938 C 794.851562 1193.878906 795.949219 1194.246094 796.679688 1194.714844 C 797.285156 1195.105469 798.027344 1195.730469 799.234375 1200.105469 L 799.230469 1200.109375 C 800.765625 1205.683594 802.640625 1215.535156 804.871094 1227.292969 C 807.964844 1243.636719 811.710938 1263.417969 816.144531 1279.527344 C 816.617188 1281.230469 817.007812 1282.597656 817.492188 1284.226562 L 817.492188 1284.230469 C 825.835938 1312.148438 836.527344 1325.625 843.96875 1332.003906 C 844.613281 1332.554688 845.375 1333.167969 845.890625 1333.582031 L 845.894531 1333.582031 C 846.460938 1334.035156 846.835938 1334.332031 847.289062 1334.722656 L 847.292969 1334.726562 C 850.421875 1337.410156 853.070312 1340.445312 855.855469 1372.175781 L 855.898438 1372.480469 L 855.886719 1372.484375 C 859.238281 1410.882812 862.636719 1487.542969 847.523438 1535.519531 C 836.289062 1571.171875 814.738281 1591.125 797.386719 1607.144531 C 791.636719 1612.457031 786.230469 1617.441406 781.910156 1622.429688 C 764.210938 1642.878906 765.667969 1662.441406 766.949219 1680.539062 C 767.085938 1682.519531 768.679688 1684.089844 770.667969 1684.199219 L 770.667969 1684.203125 L 772.402344 1684.292969 L 772.402344 1684.296875 C 801.40625 1685.882812 830.492188 1687.457031 852.164062 1687.457031 C 859.035156 1687.457031 865.195312 1687.300781 870.441406 1686.929688 C 893.355469 1685.316406 899.460938 1679.316406 903.753906 1664.683594 C 904.484375 1662.195312 905.183594 1659.445312 905.898438 1656.625 C 906.722656 1653.375 907.554688 1650.105469 908.554688 1646.6875 C 911.359375 1637.125 915.125 1627.890625 921.617188 1621.566406 C 925.113281 1618.160156 929.496094 1615.480469 934.410156 1612.492188 C 939.253906 1609.550781 944.601562 1606.324219 949.035156 1602 C 954.0625 1597.101562 957.925781 1590.808594 959.109375 1581.90625 C 960.417969 1572.046875 958.347656 1558.964844 955.878906 1543.066406 C 952.332031 1520.226562 947.65625 1490.117188 948.96875 1450.902344 L 948.96875 1450.90625 C 951.007812 1389.921875 967.503906 1306.894531 985.433594 1221.4375 L 985.535156 1221.441406 C 989.796875 1267.617188 994.734375 1311.46875 1003.738281 1337.398438 C 1014.359375 1367.957031 1030.761719 1374.363281 1040.359375 1377.976562 L 1040.371094 1377.976562 C 1040.710938 1378.105469 1041.140625 1378.265625 1041.441406 1378.382812 L 1041.441406 1378.386719 C 1047.359375 1380.640625 1048.890625 1378.941406 1052.828125 1421.632812 C 1056.671875 1463.320312 1062.898438 1544.132812 1054.539062 1591.015625 C 1047.921875 1628.136719 1032.160156 1643.71875 1019.480469 1656.292969 L 1019.480469 1656.296875 C 1016.398438 1659.347656 1013.359375 1662.359375 1010.71875 1665.4375 C 996.9375 1681.519531 994.148438 1699.222656 991.472656 1715.78125 C 991.167969 1717.65625 992.246094 1719.484375 994.039062 1720.125 C 1017.308594 1728.421875 1041.378906 1737.046875 1066.230469 1737.046875 C 1069.75 1737.046875 1073.28125 1736.875 1076.839844 1736.507812 C 1105.429688 1733.542969 1134.761719 1717.894531 1148.851562 1706.777344 C 1163.46875 1695.238281 1162.839844 1687.375 1161.511719 1675.789062 L 1161.511719 1675.785156 C 1161.421875 1675.058594 1161.441406 1675.230469 1161.359375 1674.488281 C 1159.988281 1662.351562 1159.078125 1647.082031 1164.511719 1639.351562 C 1165.648438 1637.726562 1167.121094 1636.367188 1169.121094 1634.539062 L 1169.121094 1634.542969 C 1171.339844 1632.507812 1174.070312 1630.027344 1176.539062 1626.503906 L 1176.539062 1626.507812 C 1181.738281 1619.117188 1185.429688 1607.816406 1184.859375 1586.433594 C 1184.148438 1559.949219 1176.828125 1517.042969 1169.691406 1475.117188 C 1165.921875 1452.917969 1162.140625 1430.742188 1159.410156 1411.445312 C 1151.480469 1355.441406 1152.050781 1322.1875 1156.621094 1301.875 C 1158.75 1292.359375 1161.808594 1285.558594 1164.839844 1278.824219 C 1167.609375 1272.644531 1170.421875 1266.4375 1172.230469 1258.402344 C 1172.628906 1256.644531 1172.96875 1254.792969 1173.261719 1252.847656 C 1174.539062 1244.21875 1174.648438 1233.601562 1174.78125 1222.167969 C 1174.949219 1207.632812 1175.140625 1191.492188 1177.550781 1175.234375 C 1177.730469 1173.992188 1177.871094 1173.132812 1178.078125 1171.890625 C 1182.699219 1144.242188 1193.679688 1115.914062 1266.339844 1115.914062 C 1269.691406 1115.914062 1273.28125 1115.980469 1276.898438 1116.105469 C 1309.980469 1117.257812 1354.128906 1123.71875 1402.949219 1130.867188 C 1462.058594 1139.523438 1527.789062 1149.15625 1587.730469 1151.238281 C 1595.429688 1151.507812 1603.109375 1151.652344 1610.609375 1151.652344 C 1617.941406 1151.652344 1625.160156 1151.515625 1632.25 1151.226562 C 1747.488281 1146.496094 1825.320312 1101.0625 1901.761719 1055.390625 L 1901.851562 1055.394531 C 1911.308594 1081.300781 1921.308594 1107.574219 1936.519531 1125.523438 C 1952.078125 1143.890625 1972.878906 1153.300781 1992.988281 1162.015625 L 1992.898438 1162.019531 C 1990.890625 1182.730469 1988.859375 1204.945312 1994.089844 1215.863281 C 1996.949219 1221.851562 2002.039062 1224.882812 2007.671875 1224.882812 C 2013.921875 1224.882812 2020.140625 1221.179688 2024.378906 1215.507812 L 2024.378906 1215.511719 C 2031.359375 1206.164062 2033.519531 1190.597656 2035.191406 1175.882812 L 2035.289062 1175.886719 C 2043.53125 1177.316406 2051.839844 1178.671875 2059.480469 1179.253906 C 2063.128906 1179.53125 2066.640625 1179.636719 2070 1179.636719 C 2073.449219 1179.636719 2076.828125 1179.527344 2080.128906 1179.386719 L 2080.21875 1179.394531 C 2080.339844 1194.582031 2080.789062 1210.664062 2086.058594 1220.019531 C 2089.449219 1226.019531 2095 1229.695312 2101.019531 1229.695312 C 2105.929688 1229.695312 2110.539062 1227.238281 2113.828125 1222.722656 L 2113.828125 1222.726562 C 2120.058594 1214.160156 2121.878906 1197.121094 2123.351562 1181.21875 L 2123.261719 1181.222656 C 2128.890625 1180.945312 2135.011719 1180.363281 2140.449219 1177.808594 C 2143.671875 1176.300781 2146.570312 1174.144531 2149.21875 1171.753906 L 2149.320312 1171.757812 C 2143.359375 1279.824219 2136.910156 1385.761719 2114.640625 1450.6875 C 2096.179688 1504.5 2066.808594 1530.078125 2044.871094 1549.171875 C 2039.71875 1553.660156 2034.871094 1557.875 2030.710938 1562.011719 C 2008.398438 1584.160156 2005.910156 1603.699219 2003.519531 1622.347656 C 2003.378906 1623.441406 2003.699219 1624.546875 2004.421875 1625.390625 C 2005.128906 1626.234375 2006.160156 1626.742188 2007.308594 1626.789062 L 2007.359375 1626.789062 L 2007.410156 1626.792969 L 2007.390625 1626.796875 C 2045.269531 1628.359375 2083.339844 1629.933594 2111.710938 1629.933594 C 2121.140625 1629.933594 2129.628906 1629.757812 2136.640625 1629.347656 C 2165.289062 1627.667969 2172.53125 1621.703125 2175.589844 1603.980469 C 2176.25 1600.207031 2176.769531 1595.726562 2177.289062 1591.332031 C 2177.859375 1586.410156 2178.460938 1581.335938 2179.28125 1576.582031 C 2180.839844 1567.550781 2183.058594 1560.835938 2186.390625 1557.75 C 2188.339844 1555.9375 2190.941406 1555.113281 2194.949219 1553.957031 L 2194.960938 1553.960938 C 2199.351562 1552.6875 2204.988281 1551.117188 2210.019531 1546.449219 C 2214.96875 1541.867188 2218.929688 1534.710938 2221.441406 1523.136719 C 2224.410156 1509.382812 2225.441406 1488.730469 2226.640625 1464.984375 C 2228.359375 1431.148438 2230.429688 1390.394531 2238.578125 1351.804688 C 2252.03125 1288.167969 2282.078125 1230.101562 2312.988281 1171.6875 L 2313.078125 1171.691406 C 2336.820312 1209.878906 2359.851562 1248.96875 2373.089844 1314.074219 C 2387.078125 1382.90625 2390.070312 1480.402344 2374.558594 1540.375 C 2361.808594 1589.617188 2336.550781 1613.621094 2318.410156 1630.84375 L 2318.410156 1630.847656 C 2314.671875 1634.398438 2311.121094 1637.769531 2308.101562 1640.984375 C 2289.898438 1660.328125 2289.96875 1674.773438 2290.121094 1688.449219 C 2290.140625 1690.222656 2291.339844 1691.769531 2293.058594 1692.222656 C 2322.71875 1700.054688 2353.070312 1708.09375 2379.898438 1708.09375 C 2384.53125 1708.09375 2389.121094 1707.851562 2393.550781 1707.328125 C 2423.808594 1703.753906 2447.949219 1687.09375 2459.910156 1675.628906 C 2472.660156 1663.425781 2472.570312 1655.914062 2470.230469 1644 L 2470.230469 1644.003906 C 2470.140625 1643.542969 2469.75 1641.628906 2469.648438 1641.136719 C 2469.359375 1639.695312 2469.300781 1639.4375 2469.011719 1637.960938 L 2469.011719 1637.964844 C 2466.980469 1627.636719 2465.519531 1616.410156 2470.25 1607.472656 C 2474.179688 1600.042969 2482.570312 1593.691406 2491.078125 1587.339844 C 2495.089844 1584.355469 2499.109375 1581.363281 2502.25 1578.390625 C 2512.789062 1568.40625 2512.960938 1558.664062 2509.359375 1535.25 C 2508.800781 1531.65625 2507.980469 1526.667969 2507.238281 1522.203125 C 2506.25 1516.1875 2505.160156 1509.613281 2504 1502.085938 C 2500.5 1479.316406 2496.558594 1449.164062 2494.230469 1409.355469 C 2490.53125 1345.867188 2490.960938 1258.214844 2498.890625 1207.171875 C 2501.390625 1191.019531 2504.660156 1178.484375 2507.410156 1167.953125 C 2509.371094 1160.480469 2511.109375 1153.8125 2512.070312 1147.636719 C 2514.050781 1134.863281 2512.699219 1124 2504 1110.664062 C 2499.820312 1104.253906 2493.941406 1097.28125 2487.398438 1089.515625 C 2478.429688 1078.851562 2468 1066.453125 2458.019531 1051.15625 C 2442.789062 1027.824219 2428.601562 997.722656 2422.710938 957.175781 C 2411.238281 878.277344 2431.039062 759.855469 2453.980469 636.859375 L 2454.070312 636.871094 C 2455.371094 707.289062 2457.941406 777.25 2468.589844 842.957031 C 2477.089844 895.398438 2490.730469 945.039062 2501.011719 982.453125 C 2506.019531 1000.667969 2510.21875 1015.996094 2512.648438 1027.253906 C 2517.738281 1050.890625 2515.050781 1056.640625 2512.53125 1062.78125 L 2512.53125 1062.785156 C 2511.25 1065.894531 2509.808594 1069.386719 2509.070312 1074.640625 C 2506.730469 1091.101562 2511.398438 1124.652344 2523.980469 1154.460938 C 2536.628906 1184.421875 2557.339844 1210.773438 2577.640625 1236.660156 C 2578.410156 1237.632812 2579.558594 1238.171875 2580.75 1238.171875 C 2581.179688 1238.171875 2581.621094 1238.097656 2582.039062 1237.953125 C 2583.628906 1237.398438 2584.699219 1235.898438 2584.691406 1234.214844 C 2584.628906 1209.582031 2584.589844 1185.46875 2588.480469 1165.332031 C 2589.761719 1158.699219 2591.460938 1152.527344 2593.191406 1146.222656 L 2593.191406 1146.226562 C 2594.859375 1140.144531 2596.539062 1134.046875 2597.78125 1127.640625 C 2599.140625 1120.617188 2599.960938 1113.222656 2599.621094 1105.125 C 2598.660156 1082.273438 2588.519531 1054.226562 2578.160156 1035.3125 C 2574.769531 1029.117188 2571.328125 1023.851562 2567.730469 1018.355469 C 2563.5 1011.882812 2558.960938 1004.949219 2553.691406 995.320312 C 2549.660156 987.949219 2545.160156 978.949219 2540.070312 967.390625 C 2522.710938 927.992188 2498.289062 858.785156 2518.828125 751.066406 C 2523.46875 726.699219 2530.410156 700.390625 2537.648438 672.890625 C 2545.429688 643.410156 2553.558594 612.539062 2559.410156 581.859375 C 2572.21875 514.660156 2574.410156 446.808594 2537.589844 392.589844 C 2468.96875 291.539062 2266.078125 240.21875 2156.691406 231.980469 L 2156.621094 231.980469 C 2144.910156 231.089844 2134.261719 230.699219 2124.371094 230.699219 C 2087.039062 230.699219 2061.039062 236.300781 2033.570312 242.199219 C 2002.171875 248.949219 1968.671875 256.160156 1913.320312 256.160156 C 1909.128906 256.160156 1904.789062 256.109375 1900.339844 256.03125 C 1840.78125 254.871094 1757.339844 245.738281 1669.25 236.089844 C 1571.648438 225.390625 1468.429688 214.078125 1386.539062 212.5 C 1382.890625 212.429688 1379.5 212.371094 1375.941406 212.339844 C 1373.140625 212.320312 1370.160156 212.308594 1367.421875 212.308594 C 1261 212.308594 1195.359375 230.449219 1146.058594 244.089844 C 1125.890625 249.660156 1108.691406 254.410156 1092.550781 256.910156 C 1082.109375 258.519531 1072.058594 259.191406 1062.230469 259.191406 C 1039.5 259.191406 1017.890625 255.609375 994.625 251.75 C 973.539062 248.25 951.179688 244.53125 925.835938 243.230469 C 918.222656 242.839844 910.261719 242.660156 902.210938 242.660156 C 871.453125 242.660156 837.84375 245.171875 805.496094 247.570312 C 775.03125 249.839844 745.699219 252.019531 720.523438 252.019531 C 719.386719 252.019531 718.355469 252.011719 717.234375 252 L 717.234375 252.011719 C 663.023438 251.570312 629.371094 240.28125 597.03125 228 L 596.921875 228 C 609.71875 221.320312 622.445312 212.988281 630.476562 196.730469 C 639.550781 178.351562 643.71875 146.398438 626.148438 133.621094 C 619.980469 129.128906 611.667969 127.519531 602.9375 127.519531 C 586.589844 127.519531 566.898438 133.191406 551.347656 140.050781 C 531.730469 148.691406 518.277344 159.378906 506.1875 170.25 C 508.265625 153.578125 508.152344 136.039062 494.519531 119.890625 C 485.027344 108.640625 469.042969 98.230469 453.265625 87.910156 C 442.03125 80.558594 430.761719 73.179688 421.230469 65.328125 C 398.234375 46.378906 385.144531 24.460938 371.738281 1.941406 L 371.632812 1.769531 L 371.625 1.761719 C 370.882812 0.648438 369.648438 0 368.34375 0 Z M 368.34375 0 "/>
</svg>
